<svg width="320" height="220" viewBox="0 0 320 220" fill="none" xmlns="http://www.w3.org/2000/svg">
<rect width="320" height="220" fill="white"/>
<path d="M111.918 102V84.5455H118.31C119.548 84.5455 120.574 84.75 121.386 85.1591C122.199 85.5625 122.807 86.1108 123.21 86.804C123.614 87.4915 123.815 88.267 123.815 89.1307C123.815 89.858 123.682 90.4716 123.415 90.9716C123.148 91.4659 122.79 91.8636 122.341 92.1648C121.898 92.4602 121.409 92.6761 120.875 92.8125V92.983C121.455 93.0114 122.02 93.1989 122.571 93.5455C123.128 93.8864 123.588 94.3722 123.952 95.0028C124.315 95.6335 124.497 96.4006 124.497 97.304C124.497 98.196 124.287 98.9972 123.866 99.7074C123.452 100.412 122.81 100.972 121.94 101.386C121.071 101.795 119.96 102 118.608 102H111.918ZM114.551 99.7415H118.352C119.614 99.7415 120.517 99.4972 121.062 99.0085C121.608 98.5199 121.881 97.9091 121.881 97.1761C121.881 96.625 121.741 96.1193 121.463 95.6591C121.185 95.1989 120.787 94.8324 120.27 94.5597C119.759 94.2869 119.151 94.1506 118.446 94.1506H114.551V99.7415ZM114.551 92.0966H118.08C118.67 92.0966 119.202 91.983 119.673 91.7557C120.151 91.5284 120.528 91.2102 120.807 90.8011C121.091 90.3864 121.233 89.8977 121.233 89.3352C121.233 88.6136 120.98 88.0085 120.474 87.5199C119.969 87.0312 119.193 86.7869 118.148 86.7869H114.551V92.0966ZM131.226 102.29C130.396 102.29 129.646 102.136 128.976 101.83C128.305 101.517 127.774 101.065 127.382 100.474C126.996 99.8835 126.803 99.1591 126.803 98.3011C126.803 97.5625 126.945 96.9545 127.229 96.4773C127.513 96 127.896 95.6222 128.379 95.3438C128.862 95.0653 129.402 94.8551 129.999 94.7131C130.595 94.571 131.203 94.4631 131.822 94.3892C132.607 94.2983 133.243 94.2244 133.732 94.1676C134.22 94.1051 134.575 94.0057 134.797 93.8693C135.018 93.733 135.129 93.5114 135.129 93.2045V93.1449C135.129 92.4006 134.919 91.8239 134.499 91.4148C134.084 91.0057 133.464 90.8011 132.641 90.8011C131.783 90.8011 131.107 90.9915 130.612 91.3722C130.124 91.7472 129.786 92.1648 129.598 92.625L127.203 92.0795C127.487 91.2841 127.902 90.642 128.447 90.1534C128.999 89.6591 129.632 89.3011 130.348 89.0795C131.064 88.8523 131.817 88.7386 132.607 88.7386C133.129 88.7386 133.683 88.8011 134.268 88.9261C134.859 89.0455 135.411 89.267 135.922 89.5909C136.439 89.9148 136.862 90.3778 137.192 90.9801C137.521 91.5767 137.686 92.3523 137.686 93.3068V102H135.197V100.21H135.095C134.93 100.54 134.683 100.864 134.354 101.182C134.024 101.5 133.601 101.764 133.084 101.974C132.567 102.185 131.947 102.29 131.226 102.29ZM131.78 100.244C132.484 100.244 133.087 100.105 133.587 99.8267C134.092 99.5483 134.476 99.1847 134.737 98.7358C135.004 98.2812 135.138 97.7955 135.138 97.2784V95.5909C135.047 95.6818 134.871 95.767 134.609 95.8466C134.354 95.9205 134.061 95.9858 133.732 96.0426C133.402 96.0937 133.081 96.142 132.768 96.1875C132.456 96.2273 132.195 96.2614 131.984 96.2898C131.49 96.3523 131.038 96.4574 130.629 96.6051C130.226 96.7528 129.902 96.9659 129.658 97.2443C129.419 97.517 129.3 97.8807 129.3 98.3352C129.3 98.9659 129.533 99.4432 129.999 99.767C130.464 100.085 131.058 100.244 131.78 100.244ZM147.191 88.9091V90.9545H140.04V88.9091H147.191ZM141.958 85.7727H144.506V98.1562C144.506 98.6506 144.58 99.0227 144.728 99.2727C144.876 99.517 145.066 99.6847 145.299 99.7756C145.538 99.8608 145.796 99.9034 146.075 99.9034C146.279 99.9034 146.458 99.8892 146.612 99.8608C146.765 99.8324 146.884 99.8097 146.969 99.7926L147.43 101.898C147.282 101.955 147.072 102.011 146.799 102.068C146.526 102.131 146.185 102.165 145.776 102.17C145.106 102.182 144.481 102.062 143.901 101.812C143.322 101.562 142.853 101.176 142.495 100.653C142.137 100.131 141.958 99.4744 141.958 98.6847V85.7727ZM155.384 102.264C154.116 102.264 153.026 101.977 152.111 101.403C151.202 100.824 150.503 100.026 150.014 99.0085C149.526 97.9915 149.281 96.8267 149.281 95.5142C149.281 94.1847 149.531 93.0114 150.031 91.9943C150.531 90.9716 151.236 90.1733 152.145 89.5994C153.054 89.0256 154.125 88.7386 155.358 88.7386C156.352 88.7386 157.239 88.9233 158.017 89.2926C158.795 89.6562 159.423 90.1676 159.901 90.8267C160.384 91.4858 160.67 92.2557 160.761 93.1364H158.281C158.145 92.5227 157.832 91.9943 157.344 91.5511C156.861 91.108 156.213 90.8864 155.401 90.8864C154.69 90.8864 154.068 91.0739 153.534 91.4489C153.006 91.8182 152.594 92.3466 152.298 93.0341C152.003 93.7159 151.855 94.5227 151.855 95.4545C151.855 96.4091 152 97.233 152.29 97.9261C152.58 98.6193 152.989 99.1562 153.517 99.5369C154.051 99.9176 154.679 100.108 155.401 100.108C155.884 100.108 156.321 100.02 156.713 99.8438C157.111 99.6619 157.443 99.4034 157.71 99.0682C157.983 98.733 158.173 98.3295 158.281 97.858H160.761C160.67 98.7045 160.395 99.4602 159.935 100.125C159.474 100.79 158.858 101.312 158.085 101.693C157.318 102.074 156.418 102.264 155.384 102.264ZM166.035 94.2273V102H163.487V84.5455H166.001V91.0398H166.163C166.469 90.3352 166.938 89.7756 167.569 89.3608C168.2 88.946 169.023 88.7386 170.04 88.7386C170.938 88.7386 171.722 88.9233 172.393 89.2926C173.069 89.6619 173.592 90.2131 173.961 90.946C174.336 91.6733 174.523 92.5824 174.523 93.6733V102H171.975V93.9801C171.975 93.0199 171.728 92.2756 171.234 91.7472C170.739 91.2131 170.052 90.946 169.171 90.946C168.569 90.946 168.029 91.0739 167.552 91.3295C167.08 91.5852 166.708 91.9602 166.435 92.4545C166.168 92.9432 166.035 93.5341 166.035 94.2273Z" fill="black"/>
<path d="M116.423 135L110.497 114.636H115.936L119.009 127.98H119.178L122.688 114.636H127.122L130.632 128.01H130.801L133.884 114.636H139.312L133.396 135H128.653L124.984 122.651H124.825L121.156 135H116.423ZM148.873 135H141.346V114.636H148.863C150.938 114.636 152.724 115.044 154.222 115.859C155.727 116.668 156.887 117.835 157.702 119.359C158.518 120.877 158.925 122.694 158.925 124.808C158.925 126.929 158.518 128.752 157.702 130.277C156.894 131.802 155.737 132.972 154.232 133.787C152.728 134.596 150.941 135 148.873 135ZM146.268 130.804H148.684C149.824 130.804 150.789 130.612 151.577 130.227C152.373 129.836 152.973 129.203 153.377 128.328C153.788 127.446 153.994 126.273 153.994 124.808C153.994 123.343 153.788 122.177 153.377 121.308C152.966 120.433 152.36 119.804 151.558 119.419C150.762 119.028 149.781 118.832 148.614 118.832H146.268V130.804ZM171.573 122.949V126.688H162.147V122.949H171.573ZM182.762 135.278C181.277 135.278 179.958 135.01 178.804 134.473C177.651 133.936 176.739 133.197 176.07 132.256C175.407 131.314 175.062 130.234 175.036 129.014H179.809C179.848 129.763 180.153 130.366 180.723 130.824C181.293 131.275 181.973 131.5 182.762 131.5C183.378 131.5 183.925 131.364 184.402 131.092C184.88 130.821 185.254 130.439 185.526 129.949C185.798 129.452 185.93 128.882 185.924 128.239C185.93 127.582 185.794 127.009 185.516 126.518C185.244 126.028 184.866 125.647 184.382 125.375C183.905 125.097 183.355 124.957 182.732 124.957C182.142 124.951 181.582 125.08 181.051 125.345C180.528 125.61 180.13 125.972 179.858 126.429L175.513 125.614L176.398 114.636H189.463V118.604H180.445L179.978 123.406H180.097C180.435 122.843 180.979 122.379 181.728 122.014C182.483 121.643 183.342 121.457 184.303 121.457C185.523 121.457 186.61 121.742 187.564 122.312C188.525 122.876 189.281 123.658 189.831 124.659C190.388 125.66 190.667 126.807 190.667 128.099C190.667 129.498 190.335 130.738 189.672 131.818C189.016 132.899 188.095 133.747 186.908 134.364C185.728 134.973 184.346 135.278 182.762 135.278ZM201.164 135.278C199.679 135.278 198.36 135.01 197.207 134.473C196.053 133.936 195.142 133.197 194.472 132.256C193.809 131.314 193.465 130.234 193.438 129.014H198.211C198.251 129.763 198.556 130.366 199.126 130.824C199.696 131.275 200.375 131.5 201.164 131.5C201.781 131.5 202.327 131.364 202.805 131.092C203.282 130.821 203.656 130.439 203.928 129.949C204.2 129.452 204.333 128.882 204.326 128.239C204.333 127.582 204.197 127.009 203.918 126.518C203.647 126.028 203.269 125.647 202.785 125.375C202.308 125.097 201.757 124.957 201.134 124.957C200.544 124.951 199.984 125.08 199.454 125.345C198.93 125.61 198.532 125.972 198.261 126.429L193.915 125.614L194.8 114.636H207.866V118.604H198.847L198.38 123.406H198.499C198.837 122.843 199.381 122.379 200.13 122.014C200.886 121.643 201.744 121.457 202.705 121.457C203.925 121.457 205.012 121.742 205.967 122.312C206.928 122.876 207.683 123.658 208.234 124.659C208.79 125.66 209.069 126.807 209.069 128.099C209.069 129.498 208.737 130.738 208.075 131.818C207.418 132.899 206.497 133.747 205.31 134.364C204.13 134.973 202.748 135.278 201.164 135.278Z" fill="#4400FF"/>
</svg>
