<svg width="320" height="220" viewBox="0 0 320 220" fill="none" xmlns="http://www.w3.org/2000/svg">
<rect width="320" height="220" fill="white"/>
<path d="M60.5412 120V99.6364H69.0327C70.5573 99.6364 71.8333 99.8518 72.8608 100.283C73.8949 100.714 74.6705 101.317 75.1875 102.092C75.7112 102.868 75.973 103.766 75.973 104.787C75.973 105.562 75.8106 106.255 75.4858 106.865C75.161 107.468 74.7135 107.969 74.1435 108.366C73.5734 108.764 72.9138 109.043 72.1648 109.202V109.401C72.9867 109.44 73.7457 109.662 74.4418 110.067C75.1444 110.471 75.7079 111.035 76.1321 111.757C76.5563 112.473 76.7685 113.321 76.7685 114.303C76.7685 115.396 76.4901 116.374 75.9332 117.236C75.3764 118.091 74.571 118.767 73.517 119.264C72.4631 119.755 71.1837 120 69.679 120H60.5412ZM65.4631 116.033H68.5057C69.5729 116.033 70.3584 115.83 70.8622 115.426C71.3726 115.022 71.6278 114.458 71.6278 113.736C71.6278 113.212 71.5052 112.761 71.2599 112.384C71.0147 111.999 70.6667 111.704 70.2159 111.499C69.7652 111.286 69.2249 111.18 68.5952 111.18H65.4631V116.033ZM65.4631 108.009H68.1875C68.7244 108.009 69.2017 107.919 69.6193 107.74C70.0369 107.561 70.3617 107.303 70.5938 106.964C70.8324 106.626 70.9517 106.219 70.9517 105.741C70.9517 105.059 70.7098 104.522 70.2259 104.131C69.742 103.74 69.089 103.544 68.267 103.544H65.4631V108.009ZM83.9972 99.6364V120H79.1349V99.6364H83.9972ZM94.2212 120.288C92.6171 120.288 91.2383 119.96 90.0849 119.304C88.9381 118.641 88.0531 117.72 87.43 116.54C86.8136 115.353 86.5053 113.978 86.5053 112.413C86.5053 110.842 86.8136 109.467 87.43 108.287C88.0531 107.1 88.9381 106.179 90.0849 105.523C91.2383 104.86 92.6171 104.528 94.2212 104.528C95.8254 104.528 97.2009 104.86 98.3477 105.523C99.5011 106.179 100.386 107.1 101.002 108.287C101.626 109.467 101.937 110.842 101.937 112.413C101.937 113.978 101.626 115.353 101.002 116.54C100.386 117.72 99.5011 118.641 98.3477 119.304C97.2009 119.96 95.8254 120.288 94.2212 120.288ZM94.2511 116.619C94.8344 116.619 95.3282 116.44 95.7326 116.082C96.137 115.724 96.4452 115.227 96.6573 114.591C96.8761 113.955 96.9854 113.219 96.9854 112.384C96.9854 111.535 96.8761 110.793 96.6573 110.156C96.4452 109.52 96.137 109.023 95.7326 108.665C95.3282 108.307 94.8344 108.128 94.2511 108.128C93.6478 108.128 93.1374 108.307 92.7198 108.665C92.3088 109.023 91.994 109.52 91.7752 110.156C91.5631 110.793 91.457 111.535 91.457 112.384C91.457 113.219 91.5631 113.955 91.7752 114.591C91.994 115.227 92.3088 115.724 92.7198 116.082C93.1374 116.44 93.6478 116.619 94.2511 116.619ZM111.547 126.045C110.096 126.045 108.853 125.843 107.819 125.439C106.784 125.035 105.972 124.481 105.382 123.778C104.792 123.076 104.438 122.28 104.319 121.392L108.922 121.134C109.008 121.445 109.167 121.717 109.4 121.949C109.638 122.181 109.946 122.36 110.324 122.486C110.709 122.612 111.159 122.675 111.676 122.675C112.492 122.675 113.165 122.476 113.695 122.078C114.232 121.687 114.5 121.001 114.5 120.02V117.335H114.331C114.139 117.806 113.847 118.227 113.456 118.598C113.065 118.969 112.578 119.261 111.995 119.473C111.418 119.685 110.755 119.791 110.006 119.791C108.892 119.791 107.872 119.533 106.944 119.016C106.022 118.492 105.283 117.683 104.726 116.589C104.176 115.489 103.901 114.074 103.901 112.344C103.901 110.561 104.186 109.092 104.756 107.939C105.326 106.779 106.072 105.92 106.993 105.364C107.921 104.807 108.919 104.528 109.986 104.528C110.788 104.528 111.474 104.668 112.044 104.946C112.621 105.218 113.095 105.569 113.466 106C113.837 106.431 114.119 106.878 114.311 107.342H114.451V104.727H119.293V120.06C119.293 121.352 118.968 122.443 118.319 123.331C117.669 124.219 116.761 124.892 115.594 125.349C114.427 125.813 113.078 126.045 111.547 126.045ZM111.696 116.251C112.286 116.251 112.79 116.096 113.208 115.784C113.625 115.473 113.947 115.025 114.172 114.442C114.398 113.858 114.51 113.159 114.51 112.344C114.51 111.515 114.398 110.803 114.172 110.206C113.953 109.603 113.632 109.139 113.208 108.814C112.79 108.489 112.286 108.327 111.696 108.327C111.093 108.327 110.583 108.492 110.165 108.824C109.748 109.155 109.429 109.623 109.211 110.226C108.998 110.822 108.892 111.528 108.892 112.344C108.892 113.159 109.002 113.858 109.221 114.442C109.439 115.025 109.754 115.473 110.165 115.784C110.583 116.096 111.093 116.251 111.696 116.251ZM132.167 109.888V113.636H122.741V109.888H132.167ZM135.6 125.727V104.727H140.412V107.342H140.561C140.76 106.878 141.042 106.431 141.407 106C141.778 105.569 142.248 105.218 142.819 104.946C143.395 104.668 144.085 104.528 144.887 104.528C145.947 104.528 146.938 104.807 147.86 105.364C148.788 105.92 149.537 106.779 150.107 107.939C150.677 109.099 150.962 110.577 150.962 112.374C150.962 114.104 150.687 115.552 150.137 116.719C149.593 117.885 148.857 118.76 147.929 119.344C147.008 119.927 145.984 120.219 144.857 120.219C144.088 120.219 143.422 120.093 142.858 119.841C142.295 119.589 141.821 119.258 141.436 118.847C141.059 118.436 140.767 117.995 140.561 117.524H140.462V125.727H135.6ZM140.363 112.364C140.363 113.186 140.472 113.902 140.691 114.511C140.916 115.121 141.238 115.595 141.655 115.933C142.079 116.265 142.587 116.43 143.176 116.43C143.773 116.43 144.28 116.265 144.698 115.933C145.115 115.595 145.43 115.121 145.642 114.511C145.861 113.902 145.971 113.186 145.971 112.364C145.971 111.542 145.861 110.829 145.642 110.226C145.43 109.623 145.115 109.155 144.698 108.824C144.287 108.492 143.78 108.327 143.176 108.327C142.58 108.327 142.073 108.489 141.655 108.814C141.238 109.139 140.916 109.603 140.691 110.206C140.472 110.809 140.363 111.528 140.363 112.364ZM160.639 120.288C159.035 120.288 157.656 119.96 156.503 119.304C155.356 118.641 154.471 117.72 153.848 116.54C153.232 115.353 152.923 113.978 152.923 112.413C152.923 110.842 153.232 109.467 153.848 108.287C154.471 107.1 155.356 106.179 156.503 105.523C157.656 104.86 159.035 104.528 160.639 104.528C162.243 104.528 163.619 104.86 164.766 105.523C165.919 106.179 166.804 107.1 167.42 108.287C168.044 109.467 168.355 110.842 168.355 112.413C168.355 113.978 168.044 115.353 167.42 116.54C166.804 117.72 165.919 118.641 164.766 119.304C163.619 119.96 162.243 120.288 160.639 120.288ZM160.669 116.619C161.252 116.619 161.746 116.44 162.151 116.082C162.555 115.724 162.863 115.227 163.075 114.591C163.294 113.955 163.403 113.219 163.403 112.384C163.403 111.535 163.294 110.793 163.075 110.156C162.863 109.52 162.555 109.023 162.151 108.665C161.746 108.307 161.252 108.128 160.669 108.128C160.066 108.128 159.555 108.307 159.138 108.665C158.727 109.023 158.412 109.52 158.193 110.156C157.981 110.793 157.875 111.535 157.875 112.384C157.875 113.219 157.981 113.955 158.193 114.591C158.412 115.227 158.727 115.724 159.138 116.082C159.555 116.44 160.066 116.619 160.669 116.619ZM184.18 109.391L179.715 109.51C179.669 109.192 179.543 108.91 179.337 108.665C179.132 108.413 178.863 108.217 178.532 108.078C178.207 107.932 177.829 107.859 177.398 107.859C176.835 107.859 176.354 107.972 175.957 108.197C175.566 108.423 175.373 108.728 175.38 109.112C175.373 109.411 175.493 109.669 175.738 109.888C175.99 110.107 176.437 110.282 177.08 110.415L180.023 110.972C181.548 111.263 182.682 111.747 183.424 112.423C184.173 113.099 184.551 113.994 184.558 115.108C184.551 116.155 184.239 117.067 183.623 117.842C183.013 118.618 182.178 119.221 181.117 119.652C180.057 120.076 178.844 120.288 177.478 120.288C175.297 120.288 173.577 119.841 172.317 118.946C171.065 118.045 170.349 116.838 170.17 115.327L174.972 115.207C175.078 115.764 175.353 116.188 175.798 116.48C176.242 116.772 176.808 116.918 177.498 116.918C178.121 116.918 178.628 116.802 179.019 116.57C179.41 116.338 179.609 116.029 179.616 115.645C179.609 115.3 179.457 115.025 179.158 114.82C178.86 114.607 178.393 114.442 177.756 114.322L175.092 113.815C173.56 113.537 172.42 113.023 171.671 112.274C170.922 111.518 170.551 110.557 170.558 109.391C170.551 108.37 170.823 107.498 171.373 106.776C171.923 106.046 172.705 105.49 173.719 105.105C174.734 104.721 175.93 104.528 177.309 104.528C179.377 104.528 181.008 104.963 182.201 105.831C183.394 106.693 184.054 107.879 184.18 109.391ZM195.572 104.727V108.307H185.937V104.727H195.572ZM187.956 101.068H192.818V115.197C192.818 115.496 192.864 115.738 192.957 115.923C193.056 116.102 193.199 116.232 193.385 116.311C193.57 116.384 193.792 116.42 194.051 116.42C194.236 116.42 194.432 116.404 194.637 116.371C194.85 116.331 195.009 116.298 195.115 116.271L195.85 119.781C195.618 119.848 195.29 119.93 194.866 120.03C194.449 120.129 193.948 120.192 193.365 120.219C192.225 120.272 191.247 120.139 190.431 119.821C189.623 119.496 189.003 118.992 188.572 118.31C188.148 117.627 187.942 116.768 187.956 115.734V101.068ZM207.417 109.888V113.636H197.991V109.888H207.417ZM215.155 120.259C214.181 120.259 213.316 120.096 212.56 119.771C211.811 119.44 211.218 118.943 210.78 118.28C210.349 117.61 210.134 116.772 210.134 115.764C210.134 114.916 210.283 114.2 210.581 113.616C210.88 113.033 211.291 112.559 211.814 112.195C212.338 111.83 212.941 111.555 213.624 111.369C214.307 111.177 215.036 111.048 215.811 110.982C216.68 110.902 217.379 110.819 217.909 110.733C218.44 110.64 218.824 110.511 219.063 110.345C219.308 110.173 219.431 109.931 219.431 109.619V109.57C219.431 109.059 219.255 108.665 218.904 108.386C218.552 108.108 218.078 107.969 217.482 107.969C216.839 107.969 216.322 108.108 215.931 108.386C215.54 108.665 215.291 109.049 215.185 109.54L210.701 109.381C210.833 108.453 211.175 107.624 211.725 106.895C212.282 106.159 213.044 105.582 214.012 105.165C214.986 104.741 216.156 104.528 217.522 104.528C218.496 104.528 219.394 104.644 220.216 104.876C221.038 105.102 221.754 105.433 222.364 105.871C222.974 106.302 223.444 106.832 223.776 107.462C224.114 108.091 224.283 108.811 224.283 109.619V120H219.709V117.872H219.59C219.318 118.389 218.97 118.827 218.546 119.185C218.128 119.543 217.634 119.811 217.064 119.99C216.501 120.169 215.864 120.259 215.155 120.259ZM216.657 117.077C217.18 117.077 217.651 116.971 218.069 116.759C218.493 116.546 218.831 116.255 219.083 115.884C219.335 115.506 219.461 115.068 219.461 114.571V113.119C219.321 113.192 219.152 113.259 218.953 113.318C218.761 113.378 218.549 113.434 218.317 113.487C218.085 113.54 217.846 113.587 217.601 113.626C217.356 113.666 217.121 113.703 216.895 113.736C216.438 113.809 216.047 113.921 215.722 114.074C215.404 114.226 215.158 114.425 214.986 114.67C214.82 114.909 214.738 115.194 214.738 115.526C214.738 116.029 214.917 116.414 215.275 116.679C215.639 116.944 216.1 117.077 216.657 117.077ZM227.256 125.727V104.727H232.069V107.342H232.218C232.417 106.878 232.698 106.431 233.063 106C233.434 105.569 233.905 105.218 234.475 104.946C235.051 104.668 235.741 104.528 236.543 104.528C237.604 104.528 238.595 104.807 239.516 105.364C240.444 105.92 241.193 106.779 241.763 107.939C242.333 109.099 242.618 110.577 242.618 112.374C242.618 114.104 242.343 115.552 241.793 116.719C241.249 117.885 240.514 118.76 239.586 119.344C238.664 119.927 237.64 120.219 236.513 120.219C235.744 120.219 235.078 120.093 234.515 119.841C233.951 119.589 233.477 119.258 233.093 118.847C232.715 118.436 232.423 117.995 232.218 117.524H232.118V125.727H227.256ZM232.019 112.364C232.019 113.186 232.128 113.902 232.347 114.511C232.572 115.121 232.894 115.595 233.311 115.933C233.736 116.265 234.243 116.43 234.833 116.43C235.429 116.43 235.936 116.265 236.354 115.933C236.772 115.595 237.087 115.121 237.299 114.511C237.517 113.902 237.627 113.186 237.627 112.364C237.627 111.542 237.517 110.829 237.299 110.226C237.087 109.623 236.772 109.155 236.354 108.824C235.943 108.492 235.436 108.327 234.833 108.327C234.236 108.327 233.729 108.489 233.311 108.814C232.894 109.139 232.572 109.603 232.347 110.206C232.128 110.809 232.019 111.528 232.019 112.364ZM245.166 125.727V104.727H249.979V107.342H250.128C250.327 106.878 250.608 106.431 250.973 106C251.344 105.569 251.815 105.218 252.385 104.946C252.962 104.668 253.651 104.528 254.453 104.528C255.514 104.528 256.505 104.807 257.426 105.364C258.354 105.92 259.103 106.779 259.673 107.939C260.243 109.099 260.528 110.577 260.528 112.374C260.528 114.104 260.253 115.552 259.703 116.719C259.16 117.885 258.424 118.76 257.496 119.344C256.574 119.927 255.55 120.219 254.423 120.219C253.654 120.219 252.988 120.093 252.425 119.841C251.861 119.589 251.387 119.258 251.003 118.847C250.625 118.436 250.333 117.995 250.128 117.524H250.028V125.727H245.166ZM249.929 112.364C249.929 113.186 250.038 113.902 250.257 114.511C250.482 115.121 250.804 115.595 251.222 115.933C251.646 116.265 252.153 116.43 252.743 116.43C253.339 116.43 253.847 116.265 254.264 115.933C254.682 115.595 254.997 115.121 255.209 114.511C255.428 113.902 255.537 113.186 255.537 112.364C255.537 111.542 255.428 110.829 255.209 110.226C254.997 109.623 254.682 109.155 254.264 108.824C253.853 108.492 253.346 108.327 252.743 108.327C252.146 108.327 251.639 108.489 251.222 108.814C250.804 109.139 250.482 109.603 250.257 110.206C250.038 110.809 249.929 111.528 249.929 112.364Z" fill="black"/>
</svg>
